:SAMPLES-PER-SECOND 30
:FULLY-SPECIFIED
:DEGREES
286
root  38.8316 40.1206 9.66521 -69.4174 89.3653 -67.1816
RightUpLeg  -7.59731 -10.119 -3.59732
RightLeg  8.39634 -14.823 5.36653
RightFoot  3.52479 0.891688 -6.63729
RightToes  0.00048216 0.542163 -0.142577
Spine  33.0275 -3.67478 10.6443
Spine1  10.5133 -0.459884 -1.36772
HEad  -4.70023 -7.10957 1.85986
LeftShoulder1  13.0045 -21.5997 -45.0875
LeftArm  -16.8839 -45.9049 -25.3834
LeftForeArm  3.068 -6.9143 -7.48104
LeftHand  -0.25398 0.0180481 5.50724
RightShoulder  7.72513 15.15 35.4139
RightArm  -11.1791 47.1774 28.6227
RightForeArm  -26.5856 11.2934 10.2037
RightHand  -0.199466 0.180183 -4.18435
LeftUpLeg  -13.2719 16.2242 1.62973
LeftLeg  12.0031 -1.17032 -2.06083
LeftFoot  7.26367 0.0289272 -0.465182
LeftToes  1.06246e-005 4.65855e-005 -8.185e-006
287
root  39.0281 40.1388 9.48103 -15.0756 88.8868 -11.8903
RightUpLeg  -6.43968 -10.4167 -4.21776
RightLeg  8.62265 -13.5359 5.22925
RightFoot  3.31518 0.824162 -6.22121
RightToes  0.00048216 0.542163 -0.142577
Spine  30.2777 -3.25723 10.3899
Spine1  10.7951 -0.360436 -1.39911
HEad  -1.48609 -7.18001 2.01471
LeftShoulder1  12.8126 -21.2637 -45.0266
LeftArm  -15.7569 -43.513 -26.5204
LeftForeArm  3.25995 -7.09127 -7.53175
LeftHand  -0.25398 0.0180481 5.50724
RightShoulder  7.76366 14.9277 36.1102
RightArm  -9.5269 44.83 30.0382
RightForeArm  -26.9313 11.6436 10.1895
RightHand  -0.200161 -0.0983593 -4.37754
LeftUpLeg  -12.4515 13.3392 2.07483
LeftLeg  14.5506 -5.63888 -1.66498
LeftFoot  5.18124 0.587511 -4.29198
LeftToes  1.06246e-005 4.65855e-005 -8.185e-006
288
root  39.2205 40.146 9.2297 -10.1422 87.4656 -5.63699
RightUpLeg  -4.87078 -10.408 -4.55317
RightLeg  8.63004 -11.9999 5.07726
RightFoot  3.25875 0.751377 -5.68381
RightToes  0.00048216 0.542163 -0.142577
Spine  28.2711 -3.06689 10.5589
Spine1  10.8261 -0.0427744 -2.09346
HEad  2.21349 -6.98737 1.86198
LeftShoulder1  12.5684 -20.9017 -44.8213
LeftArm  -14.7134 -40.6993 -27.3032
LeftForeArm  3.10261 -7.67525 -7.5913
LeftHand  -0.25398 0.0180481 5.50724
RightShoulder  7.79151 14.6786 36.8234
RightArm  -7.73608 42.5976 31.5734
RightForeArm  -26.9794 11.7773 10.2617
RightHand  -0.184473 -0.511425 -4.31092
LeftUpLeg  -10.7077 8.38005 3.48221
LeftLeg  17.0342 -5.37716 -1.47621
LeftFoot  1.46155 0.642621 -5.72692
LeftToes  1.06246e-005 4.65855e-005 -8.185e-006
289
root  39.3936 40.1499 8.90606 -10.9855 85.5266 -5.2426
RightUpLeg  -3.45906 -10.2498 -4.76252
RightLeg  8.46107 -10.003 4.97031
RightFoot  3.4522 0.69735 -5.18279
RightToes  0.00048216 0.542163 -0.142577
Spine  26.3952 -2.82742 10.7816
Spine1  10.775 0.361011 -2.76414
HEad  5.68696 -6.62931 1.37313
LeftShoulder1  12.4993 -20.5272 -45.2953
LeftArm  -13.5055 -37.4798 -27.2833
LeftForeArm  2.45284 -8.97551 -7.68524
LeftHand  -0.25398 0.0180481 5.50724
RightShoulder  7.81584 14.5276 37.3038
RightArm  -5.87666 40.5526 32.9806
RightForeArm  -27.1988 11.7398 10.4439
RightHand  -0.181348 -0.838962 -4.48754
LeftUpLeg  -8.65401 4.6391 4.58552
LeftLeg  19.0725 -2.92005 -0.801172
LeftFoot  -2.20643 0.363894 -4.36486
LeftToes  1.06246e-005 4.65855e-005 -8.185e-006
290
root  39.5394 40.1279 8.5144 -7.3365 83.2346 -1.35591
RightUpLeg  -3.66665 -10.369 -5.22723
RightLeg  8.97419 -7.48577 4.86169
RightFoot  3.54061 0.660951 -4.86854
RightToes  0.00048216 0.542163 -0.142577
Spine  23.4007 -2.23882 10.4464
Spine1  11.2331 0.702447 -2.80624
HEad  8.05231 -6.24784 1.02309
LeftShoulder1  12.5681 -20.1995 -46.2123
LeftArm  -11.9963 -33.9308 -26.831
LeftForeArm  1.03532 -11.1463 -7.53226
LeftHand  -0.25398 0.0180481 5.50724
RightShoulder  7.83905 14.4926 37.5107
RightArm  -3.9472 38.8808 34.2728
RightForeArm  -27.696 11.7481 10.6553
RightHand  -0.199792 -0.995281 -5.11008
LeftUpLeg  -7.21575 2.39163 4.79562
LeftLeg  20.2189 -1.19359 -0.16887
LeftFoot  -4.13318 0.208878 -2.96153
LeftToes  1.06246e-005 4.65855e-005 -8.185e-006
291
root  39.6459 40.0627 8.06859 -3.1066 80.7108 2.13866
RightUpLeg  -5.47951 -10.724 -5.82868
RightLeg  10.1962 -4.80908 4.84387
RightFoot  3.42971 0.617616 -4.5777
RightToes  0.00048216 0.542163 -0.142577
Spine  19.4466 -1.40474 9.6184
Spine1  12.2123 0.952501 -2.17608
HEad  9.60273 -5.88067 0.772514
LeftShoulder1  12.7272 -19.9327 -47.3653
LeftArm  -10.3354 -30.2606 -26.2243
LeftForeArm  -1.25369 -13.8354 -7.00298
LeftHand  -0.25398 0.0180481 5.50724
RightShoulder  7.85918 14.5521 37.4792
RightArm  -1.82747 37.5003 35.4285
RightForeArm  -28.1669 12.062 10.7684
RightHand  -0.218793 -1.08987 -5.72724
LeftUpLeg  -6.41581 0.855024 4.4913
LeftLeg  20.2568 -1.69921 -0.369798
LeftFoot  -4.87699 0.226012 -3.50363
LeftToes  1.06246e-005 4.65855e-005 -8.185e-006
292
root  39.6928 39.9896 7.58616 -2.31883 77.9445 2.28566
RightUpLeg  -7.07414 -10.7693 -6.03634
RightLeg  10.8415 -2.1671 5.01108
RightFoot  3.67829 0.56109 -4.06339
RightToes  0.00048216 0.542163 -0.142577
Spine  16.1802 -0.747066 8.92964
Spine1  13.1665 1.17486 -1.68826
HEad  10.9263 -5.32023 0.508709
LeftShoulder1  12.8297 -19.6962 -48.2519
LeftArm  -9.2114 -26.7104 -25.6937
LeftForeArm  -3.72468 -16.5728 -6.24133
LeftHand  -0.25398 0.0180481 5.50724
RightShoulder  7.90587 14.6203 37.5693
RightArm  0.931722 36.5402 36.3035
RightForeArm  -28.721 12.7556 10.79
RightHand  -0.219475 -1.23437 -5.91934
LeftUpLeg  -5.25681 0.304976 4.32972
LeftLeg  19.1678 -3.16572 -0.902099
LeftFoot  -5.995 0.259264 -4.78265
LeftToes  1.06246e-005 4.65855e-005 -8.185e-006
